<svg width="48" height="34" viewBox="0 0 48 34" fill="none" xmlns="http://www.w3.org/2000/svg">
<g filter="url(#filter0_d_3_39)">
<path d="M36.5016 10.561C36.5016 12.8915 35.3375 15.0443 33.3764 16.7909L43.2675 23.2239C44.2442 23.8586 44.2442 24.8893 43.2675 25.524C42.2909 26.1587 40.7049 26.1587 39.7283 25.524L29.8372 19.091C27.1496 20.3704 23.8369 21.1219 20.2508 21.1219C11.2738 21.1219 4 16.3949 4 10.561C4 4.72704 11.2738 0 20.2508 0C29.2278 0 36.5016 4.72704 36.5016 10.561ZM20.2508 17.8724C21.7282 17.8724 23.1912 17.6833 24.5562 17.3158C25.9212 16.9484 27.1614 16.4098 28.2061 15.7309C29.2508 15.052 30.0796 14.246 30.6449 13.3589C31.2103 12.4719 31.5013 11.5211 31.5013 10.561C31.5013 9.6008 31.2103 8.65005 30.6449 7.76299C30.0796 6.87593 29.2508 6.06992 28.2061 5.39099C27.1614 4.71206 25.9212 4.17351 24.5562 3.80607C23.1912 3.43864 21.7282 3.24952 20.2508 3.24952C18.7733 3.24952 17.3104 3.43864 15.9454 3.80607C14.5804 4.17351 13.3402 4.71206 12.2955 5.39099C11.2507 6.06992 10.422 6.87593 9.85664 7.76299C9.29125 8.65005 9.00024 9.6008 9.00024 10.561C9.00024 11.5211 9.29125 12.4719 9.85664 13.3589C10.422 14.246 11.2507 15.052 12.2955 15.7309C13.3402 16.4098 14.5804 16.9484 15.9454 17.3158C17.3104 17.6833 18.7733 17.8724 20.2508 17.8724Z" fill="#00A1FC"/>
</g>
<defs>
<filter id="filter0_d_3_39" x="0" y="0" width="48" height="34" filterUnits="userSpaceOnUse" color-interpolation-filters="sRGB">
<feFlood flood-opacity="0" result="BackgroundImageFix"/>
<feColorMatrix in="SourceAlpha" type="matrix" values="0 0 0 0 0 0 0 0 0 0 0 0 0 0 0 0 0 0 127 0" result="hardAlpha"/>
<feOffset dy="4"/>
<feGaussianBlur stdDeviation="2"/>
<feComposite in2="hardAlpha" operator="out"/>
<feColorMatrix type="matrix" values="0 0 0 0 0 0 0 0 0 0 0 0 0 0 0 0 0 0 0.25 0"/>
<feBlend mode="normal" in2="BackgroundImageFix" result="effect1_dropShadow_3_39"/>
<feBlend mode="normal" in="SourceGraphic" in2="effect1_dropShadow_3_39" result="shape"/>
</filter>
</defs>
</svg>
